<?xml version="1.0" standalone="no"?>
<!DOCTYPE svg PUBLIC "-//W3C//DTD SVG 1.1//EN" "http://www.w3.org/Graphics/SVG/1.1/DTD/svg11.dtd" >
<svg xmlns="http://www.w3.org/2000/svg" xmlns:xlink="http://www.w3.org/1999/xlink" version="1.1">
<metadata>
Created by FontForge 20161116 at Mon Feb 23 04:47:12 2004
 By Jimmy Wärting
(c) 1998 Ray Larabie. This font is freeware. Read attached text file for details. Info &#38; updates visit www.larabiefonts.com. Donations gratefully accepted at www.larabiefonts.com/donation.html. Also visit my commercial type foundry at www.typodermic.com. This font was updated in 2004.
</metadata>
<defs>
<font id="Anklepants" horiz-adv-x="766" >
  <font-face 
    font-family="Anklepants"
    font-weight="400"
    font-stretch="normal"
    units-per-em="1000"
    panose-1="0 0 4 0 0 0 0 0 0 0"
    ascent="800"
    descent="-200"
    x-height="731"
    cap-height="731"
    bbox="-26 -160 1914 913"
    underline-thickness="20"
    underline-position="-143"
    unicode-range="U+0020-2122"
  />
<missing-glyph horiz-adv-x="334" 
 />
    <glyph glyph-name=".notdef" horiz-adv-x="334" 
 />
    <glyph glyph-name="exclam" unicode="!" horiz-adv-x="301" 
d="M249 235h-196v496h196v-496zM249 0h-196v128h196v-128z" />
    <glyph glyph-name="quotedbl" unicode="&#x22;" horiz-adv-x="511" 
d="M442 416h-139v315h139v-315zM193 416h-140v315h140v-315z" />
    <glyph glyph-name="numbersign" unicode="#" horiz-adv-x="494" 
d="M178 201h111l33 155h-113zM337 202h93v-63h-104l-30 -139h-47l28 139h-111l-29 -139h-48l28 139h-89v63h102l30 153h-95v63h109l25 136h50l-26 -136h110l28 136h48l-27 -136h84v-63h-97z" />
    <glyph glyph-name="dollar" unicode="$" horiz-adv-x="763" 
d="M422 -5v-98h-65v99q-95 1 -137 7q-85 13 -121 55q-23 27 -29 71q-2 18 -2 79h177q0 -87 16.5 -105.5t95.5 -19.5v248q-61 12 -121 25q-81 19 -113 42q-50 36 -50 145q0 74 23 117q26 50 127 67q42 7 148 9v85h66v-85q93 -1 135 -6q97 -11 122 -43q18 -23 21 -69
q0 7 0 -74h-168v51q0 40 -40 50q-12 2 -70 3v-219q58 -9 104 -20q111 -28 146 -64q24 -24 31 -72q3 -22 3 -82q0 -131 -97 -171q-49 -20 -202 -25zM371 436v212q-66 -1 -82 -11q-28 -16 -28 -81t27 -88q16 -14 83 -32zM422 320v-236q48 1 62 5q39 8 47 37q4 15 4 51
q0 82 -20 104q-15 16 -93 39z" />
    <glyph glyph-name="percent" unicode="%" horiz-adv-x="1319" 
d="M1275 125q0 -50 -20 -78q-40 -56 -207 -56q-132 0 -183 33q-33 20 -42 58q-5 18 -5 43v185q0 73 47 103q53 33 183 33q179 0 214 -69q13 -27 13 -67v-185zM1007 738l-600 -746h-115l600 746h115zM481 420q0 -50 -21 -78q-40 -55 -204 -55q-66 0 -115 8q-96 17 -112 83
q-4 18 -4 42v186q0 73 47 102q51 32 182 32q166 0 206 -55q21 -28 21 -79v-186zM1113 283l-155 137v-304q0 -56 90 -56q44 0 66 13t22 43v112q0 34 -23 55zM319 585l-155 137v-305q0 -55 90 -55q44 0 66 13t22 42v116q0 31 -23 52z" />
    <glyph glyph-name="ampersand" unicode="&#x26;" horiz-adv-x="827" 
d="M804 64l-141 -69q-18 11 -41 43q-40 -24 -64 -31q-45 -15 -155 -15q-8 0 -41 -1h-56q-227 0 -265 76q-13 26 -13 60v152q0 74 73 103q38 15 128 22q-74 63 -92 84q-54 58 -54 111q0 80 50 109q54 31 223 31q121 0 184 -14.5t82 -51.5q13 -26 13 -97h-187l-166 148
q0 9 0 -131q0 -32 17 -50l213 -221v114h168v-255zM319 313q-10 9 -31 9q-65 0 -65 -96q0 -12 1 -33v-30q0 -67 53 -78q28 -5 78 -5q96 0 116 24q11 12 11 35q0 20 -11 31z" />
    <glyph glyph-name="quotesingle" unicode="'" horiz-adv-x="261" 
d="M192 416h-139v315h139v-315z" />
    <glyph glyph-name="parenleft" unicode="(" horiz-adv-x="398" 
d="M354 -8q-150 0 -203 20q-105 38 -105 167v372q0 130 105 168q53 20 203 20v-90q-44 -4 -72 -31q-31 -30 -31 -78v-349q0 -92 103 -108v-91z" />
    <glyph glyph-name="parenright" unicode=")" horiz-adv-x="432" 
d="M52 -8v90q44 4 73.5 32.5t29.5 76.5v349q0 93 -103 108v91q150 0 203 -20q105 -38 105 -168v-372q0 -129 -105 -167q-54 -20 -203 -20z" />
    <glyph glyph-name="asterisk" unicode="*" horiz-adv-x="733" 
d="M590 463l-177 18l100 -175l-85 -37l-62 149l-61 -149l-85 37l100 175l-177 -18v80l177 -13l-100 170l86 37l60 -145l61 145l86 -37l-100 -170l177 13v-80z" />
    <glyph glyph-name="plus" unicode="+" horiz-adv-x="488" 
d="M440 213h-169v-213h-74v213h-169v85h169v213h74v-213h169v-85z" />
    <glyph glyph-name="comma" unicode="," horiz-adv-x="322" 
d="M249 156v-176q0 -132 -188 -140v50q50 8 71 27.5t21 62.5q0 17 -3 39h-98v137h197z" />
    <glyph glyph-name="hyphen" unicode="-" horiz-adv-x="527" 
d="M451 202h-375v131h375v-131z" />
    <glyph glyph-name="period" unicode="." horiz-adv-x="329" 
d="M254 0h-196v156h196v-156z" />
    <glyph glyph-name="slash" unicode="/" horiz-adv-x="564" 
d="M541 739l-389 -747h-146l389 747h146z" />
    <glyph glyph-name="zero" unicode="0" 
d="M696 131q0 -52 -32 -82q-63 -58 -284 -58q-117 0 -192 15q-71 13 -103.5 43t-32.5 82v469q0 76 71 107q77 32 251 32t251 -32q71 -31 71 -107v-469zM435 608l-149 122v-588q0 -56 88 -56q39 0 61 11q27 13 27 45v408q0 36 -27 58z" />
    <glyph glyph-name="one" unicode="1" horiz-adv-x="439" 
d="M381 0h-225v551q0 86 -104 117v63h329v-731z" />
    <glyph glyph-name="two" unicode="2" horiz-adv-x="659" 
d="M241 95h373v-95h-579q0 -6 -1 65q-1 48 1 79q2 43 11 65q22 57 105 95q6 3 146 52q79 28 91 60q8 20 8 156q0 32 -21 51l-123 109v-248h-205q0 148 -2 93q2 60 19 88.5t49 43.5q65 31 237 31q190 0 236 -46q23 -23 29 -58q6 -38 6 -115q0 -100 -11 -136
q-10 -32 -45.5 -52t-144.5 -52q-99 -30 -139 -60q-29 -22 -36 -55q-4 -16 -4 -71z" />
    <glyph glyph-name="three" unicode="3" horiz-adv-x="714" 
d="M42 219h205q0 -89 7 -105q14 -33 82 -33q41 0 61.5 11.5t27.5 39.5q6 24 6 68q0 46 -8 67l-176 155q93 0 115 8q26 9 47 46l1 76q0 20 -3.5 27t-20.5 22l-139 122v-180h-205q0 81 4 98q10 42 59 65q71 34 248 34q215 0 258 -64q23 -33 23 -114q0 -58 -11 -92t-61 -61
q-42 -23 -82 -28q137 -25 156 -87q9 -34 9 -106q0 -62 -11 -97q-23 -68 -134 -88q-67 -11 -176 -11q-223 0 -263 58q-18 26 -20 83q1 -25 1 86z" />
    <glyph glyph-name="four" unicode="4" horiz-adv-x="795" 
d="M732 157h-71v-157h-206v157h-396v162l241 412h361v-477h71v-97zM455 254v420h-35l-205 -420h240z" />
    <glyph glyph-name="five" unicode="5" horiz-adv-x="697" 
d="M43 197h207v-68q0 -23 24 -36.5t57 -13.5t57 13.5t24 36.5v237q0 52 -86 52q-39 0 -61 -11q-25 -12 -25 -55h-177v379h525v-95h-467l119 -108q19 -17 19 -42v-32q57 29 94 40t92 11q93 0 145 -27q47 -24 47 -102v-234q0 -63 -36 -95.5t-99 -43.5q-69 -11 -172 -11
q-157 0 -220 29q-34 16 -50 44q-14 25 -16 65q-1 3 -1 67z" />
    <glyph glyph-name="six" unicode="6" horiz-adv-x="719" 
d="M664 506h-216v48q0 29 -21 45l-163 125v-355q43 26 93 44q33 11 104 11q100 0 145 -18q42 -16 54 -47q13 -35 13 -126q0 -85 -9.5 -130.5t-36.5 -68.5q-50 -42 -276 -42q-114 0 -162 6q-112 15 -139 64q-14 27 -14 76v361q0 115 29 163t96 62q73 16 231 16q225 0 256 -48
q15 -22 16 -92q0 27 0 -94zM261 95q0 -32 28 -50.5t67 -18.5q37 0 64.5 18t27.5 51v186q0 32 -22.5 47t-67.5 15q-40 0 -66 -14q-31 -16 -31 -46v-188z" />
    <glyph glyph-name="seven" unicode="7" horiz-adv-x="616" 
d="M575 622l-240 -622h-225l252 636h-333v95h546v-109z" />
    <glyph glyph-name="eight" unicode="8" horiz-adv-x="791" 
d="M268 381q-62 16 -67 17q-38 12 -64.5 27.5t-35.5 40.5q-12 28 -12 79q0 76 21 116q18 37 80 57q70 22 213 22q243 0 282 -79q20 -39 20 -115q0 -66 -22 -99q-18 -27 -61 -40.5t-87 -25.5q66 -17 71 -19q36 -12 67.5 -34t40.5 -52q11 -34 10 -79q0 -83 -32.5 -125
t-102.5 -61q-76 -20 -195 -20q-248 0 -301 97q-22 39 -22 101q0 55 10 88q13 46 80 73zM464 577l-159 141v-252q0 -59 94 -59q43 0 67 13.5t24 45.5v53q0 35 -26 58zM490 135v143q0 29 -26 43q-22 13 -66 13q-93 0 -93 -56v-143q0 -28 25 -42t68 -14q92 0 92 56z" />
    <glyph glyph-name="nine" unicode="9" horiz-adv-x="783" 
d="M85 195h215q0 -42 -1 -36q2 -14 23 -28t163 -124v355q-44 -26 -94 -44q-32 -11 -104 -11q-99 0 -145 18q-41 16 -53 47q-14 35 -14 126q0 85 10 132q9 44 36 67q50 42 276 42q114 0 162 -6q112 -15 139 -64q15 -27 15 -76v-361q0 -115 -31 -165q-28 -46 -95 -60
q-73 -16 -231 -16q-225 0 -256 48q-14 22 -16 77q1 -22 1 79zM465 582l-165 146v-278q0 -32 24 -48q21 -14 66 -14q40 0 66 14q32 16 32 46v85q0 30 -23 49z" />
    <glyph glyph-name="colon" unicode=":" horiz-adv-x="298" 
d="M243 385h-197v130h197v-130zM243 0h-197v130h197v-130z" />
    <glyph glyph-name="semicolon" unicode=";" horiz-adv-x="296" 
d="M241 388h-197v127h197v-127zM241 137v-165q0 -124 -188 -132v47q49 7 70.5 25.5t21.5 59.5q0 16 -3 37h-98v128h197z" />
    <glyph glyph-name="less" unicode="&#x3c;" horiz-adv-x="412" 
d="M394 -1l-383 221v70l383 223v-79l-311 -178l311 -179v-78z" />
    <glyph glyph-name="equal" unicode="=" horiz-adv-x="413" 
d="M402 337h-383v88h383v-88zM402 86h-383v88h383v-88z" />
    <glyph glyph-name="greater" unicode="&#x3e;" horiz-adv-x="405" 
d="M394 220l-383 -221v78l311 179l-311 178v79l383 -223v-70z" />
    <glyph glyph-name="question" unicode="?" horiz-adv-x="682" 
d="M419 234h-205q0 98 8 114q13 25 101 62q83 35 93 77q4 17 5 46.5t1 30.5q-2 5 -22 23l-154 138v-192h-206q0 63 2 77q4 45 23 71q23 31 78 44q61 15 188 15q195 0 253 -37q29 -18 41 -53q12 -39 12 -112q0 -85 -19 -115t-90 -58q-36 -15 -88 -43q-17 -15 -20 -40
q-1 -5 -1 -48zM419 0h-205v127h205v-127z" />
    <glyph glyph-name="at" unicode="@" horiz-adv-x="586" 
d="M394 432v-136q0 -46 41 -46q23 0 43 28t20 79q0 49 -11 91t-35.5 73t-63.5 48t-95 17q-44 0 -82 -15t-66.5 -45.5t-44.5 -75.5t-16 -105q0 -120 50.5 -182t136.5 -75l-7 -62q-61 9 -106.5 36.5t-75.5 70t-45 97t-15 116.5q0 71 22.5 126.5t60 94t86.5 59t102 20.5
q128 0 197 -69t69 -215q0 -20 -4 -48t-17.5 -53.5t-38 -43.5t-65.5 -18q-61 0 -82 46q-16 -13 -33 -18t-36 -5q-20 0 -38.5 6.5t-32.5 19.5t-22 32.5t-8 44.5q0 52 26 80t74 28q20 0 35 -5.5t27 -12.5l5 17h45zM344 360q-20 21 -52 21q-59 0 -59 -56q0 -53 55 -53
q36 0 56 25v63z" />
    <glyph glyph-name="A" unicode="A" horiz-adv-x="815" 
d="M777 0h-228l-5 29q-6 31 -32 54l-187 164l-47 -247h-228l165 731h397zM500 280l-83 439l-89 -439h172z" />
    <glyph glyph-name="B" unicode="B" horiz-adv-x="773" 
d="M49 0v731h369q170 0 220 -32t50 -130q0 -45 -11 -83q-15 -49 -66 -72q-32 -15 -96 -22q86 0 136 -46q55 -49 55 -146q0 -71 -16 -110q-21 -50 -73.5 -70t-154.5 -20h-413zM447 570l-173 154v-309h97q43 0 63 9q29 13 35 49q3 19 3 48q-1 28 -25 49zM274 396v-335h97
q50 0 71 14q29 19 29 67v13q0 51 -19 77q-5 7 -54 51z" />
    <glyph glyph-name="C" unicode="C" horiz-adv-x="709" 
d="M663 504h-215v42q0 31 -23 51l-153 132v-614q0 -25 30 -42q27 -14 64 -14q35 0 58.5 14t23.5 42v133h215q0 -132 1 -88q-1 -57 -15 -87q-26 -54 -121 -71q-49 -10 -146 -10h-37q-29 -1 -46 -1q-261 0 -261 147v433q0 86 54 126q44 33 143 40q20 2 147 2q166 0 226 -29
q55 -27 55 -84v-122z" />
    <glyph glyph-name="D" unicode="D" horiz-adv-x="747" 
d="M49 0v731h323q131 0 192 -19q71 -23 96 -99q17 -51 17 -151q0 -304 2 -168q-2 -120 -17.5 -172t-46.5 -77q-56 -45 -243 -45h-323zM431 586l-157 139v-661q2 0 20 -1h33q125 0 125 58v412q0 34 -21 53z" />
    <glyph glyph-name="E" unicode="E" horiz-adv-x="563" 
d="M521 0h-487v731h467v-101h-403l141 -130q15 -13 17.5 -17t2.5 -22v-36h224v-96h-224v-228h262v-101z" />
    <glyph glyph-name="F" unicode="F" horiz-adv-x="539" 
d="M492 630h-394l141 -132q18 -16 19 -18.5t1 -26.5v-49h212v-102h-212v-302h-225v731h458v-101z" />
    <glyph glyph-name="G" unicode="G" horiz-adv-x="748" 
d="M689 500h-215v29q0 28 -25 49l-170 148v-599q0 -25 31 -40t71 -15q39 0 64 13q29 15 29 42v143h-81v108h296v-229q0 -52 -15 -81t-50 -46q-64 -30 -241 -30q-128 0 -200.5 13.5t-105 43.5t-32.5 82v469q0 76 72 107q77 32 253 32q112 0 181 -13t103 -47q27 -27 34 -84
q1 -17 1 -95z" />
    <glyph glyph-name="H" unicode="H" horiz-adv-x="753" 
d="M695 0h-224v218q0 25 -1 27.5t-19 17.5l-171 153v-416h-225v731h225v-300h191v300h224v-731z" />
    <glyph glyph-name="I" unicode="I" horiz-adv-x="338" 
d="M280 0h-225v731h225v-731z" />
    <glyph glyph-name="J" unicode="J" horiz-adv-x="743" 
d="M670 731v-593q0 -147 -260 -147q-18 0 -46 1h-38q-96 0 -146 10q-95 17 -120 71q-14 30 -16 87q1 -44 1 88h215v-133q0 -28 24 -42t58 -14q37 0 65.5 15.5t28.5 40.5v616h234z" />
    <glyph glyph-name="K" unicode="K" horiz-adv-x="730" 
d="M708 0h-223l-163 282q-33 56 -67 60v-342h-225v731h225v-325l191 325h217l-231 -346q31 -1 60.5 -22t45.5 -52z" />
    <glyph glyph-name="L" unicode="L" horiz-adv-x="560" 
d="M530 0h-480v731h225v-459q0 -28 -1 -31t-17 -17l-133 -123h406v-101z" />
    <glyph glyph-name="M" unicode="M" horiz-adv-x="1160" 
d="M1102 0h-196v285l89 335l-273 -620h-287l-273 620l89 -335v-285h-196v731h255l269 -603l268 603h255v-731z" />
    <glyph glyph-name="N" unicode="N" horiz-adv-x="824" 
d="M766 0h-275l-330 621l56 -248v-373h-162v731h270l285 -503v503h156v-731z" />
    <glyph glyph-name="O" unicode="O" 
d="M696 131q0 -52 -32 -82q-63 -58 -284 -58q-117 0 -192 15q-71 13 -103.5 43t-32.5 82v469q0 76 71 107q77 32 251 32t251 -32q71 -31 71 -107v-469zM435 612l-149 119v-621q0 -26 26 -41t62 -15q35 0 61.5 15t26.5 41v442q0 23 -5 34.5t-22 25.5z" />
    <glyph glyph-name="P" unicode="P" horiz-adv-x="708" 
d="M256 262v-262h-225v731h360q190 0 245 -70q29 -37 29 -99v-119q0 -120 -106 -159q-59 -22 -196 -22h-107zM427 574l-171 151v-364h69q62 0 86 10q43 18 43 74v72q0 34 -27 57z" />
    <glyph glyph-name="Q" unicode="Q" horiz-adv-x="730" 
d="M612 -155h-218q-10 91 -51 146q-210 3 -272 60q-32 30 -32 82v467q0 76 71 107q77 32 251 32t251 -32q71 -31 71 -107v-467q0 -51 -25 -76q-17 -17 -67 -37q-36 -15 -109 -23q34 -22 77 -76q37 -45 53 -76zM449 10v523q0 38 -31 65l-145 125v-531q0 -41 33 -68z" />
    <glyph glyph-name="R" unicode="R" horiz-adv-x="769" 
d="M728 0h-225q-27 47 -27 93v68q0 46 -51 89l-148 127v-377h-224v731h305q263 0 315 -63q28 -35 28 -101v-73q0 -75 -58 -122q-51 -42 -121 -42q35 0 87 -17q57 -19 76 -43q16 -20 16 -59v-118q0 -48 27 -93zM449 576l-172 149v-344h70q62 0 86 10q43 18 43 74v62
q0 25 -27 49z" />
    <glyph glyph-name="S" unicode="S" horiz-adv-x="724" 
d="M666 191q0 -85 -30 -126.5t-92 -56.5q-71 -17 -202 -17q-235 0 -278 68q-18 28 -22 57q-1 11 -1 61v56h205v-31q0 -21 2 -24.5t18 -17.5l175 -154v227q0 34 -14 51q-20 24 -112 39q-131 20 -161 29q-87 26 -104 81q-9 28 -9 127q0 83 26 119t87 48q69 13 188 13
q224 0 274 -57q22 -25 27 -60q1 -11 1 -67v-54h-200v25q0 23 -5 31q-3 4 -24 23l-159 137v-147q0 -59 1 -61q3 -36 23.5 -51t88.5 -27q110 -19 132 -24q91 -21 122 -46q25 -20 34 -55t9 -116z" />
    <glyph glyph-name="T" unicode="T" horiz-adv-x="665" 
d="M638 630h-344l128 -113q31 -28 31 -66v-451h-225v630h-183v101h593v-101z" />
    <glyph glyph-name="U" unicode="U" horiz-adv-x="754" 
d="M53 731h225v-535q0 -38 24 -60l155 -137v732h225v-565q0 -58 -20 -93q-32 -56 -135 -73q-48 -8 -160 -8q-110 0 -160 8q-102 18 -134 74q-20 34 -20 92v565z" />
    <glyph glyph-name="V" unicode="V" horiz-adv-x="793" 
d="M753 731l-145 -731h-416l-145 731h230l139 -674l107 674h230z" />
    <glyph glyph-name="W" unicode="W" horiz-adv-x="1123" 
d="M1075 731l-159 -731h-211l-131 536l-150 -536h-219l-159 731h214l76 -306l83 -349l-43 348l84 307h245l180 -655l-55 349l76 306h169z" />
    <glyph glyph-name="X" unicode="X" horiz-adv-x="673" 
d="M635 731l-135 -346l129 -384h-217l-91 359v-165l-67 -194h-196l135 384l-129 346h217l90 -321v164l68 157h196z" />
    <glyph glyph-name="Y" unicode="Y" horiz-adv-x="741" 
d="M715 731l-231 -498v-233h-216v233l-231 498h217l107 -219l-30 -191l167 410h217z" />
    <glyph glyph-name="Z" unicode="Z" horiz-adv-x="651" 
d="M598 0h-539v109l281 474l167 47h-418v101h509v-111l-307 -519h307v-101z" />
    <glyph glyph-name="bracketleft" unicode="[" horiz-adv-x="398" 
d="M355 0h-308v731h308v-89h-103v-553h103v-89z" />
    <glyph glyph-name="backslash" unicode="\" horiz-adv-x="564" 
d="M541 -8h-146l-389 747h146z" />
    <glyph glyph-name="bracketright" unicode="]" horiz-adv-x="421" 
d="M363 0h-308v89h103v553h-103v89h308v-731z" />
    <glyph glyph-name="asciicircum" unicode="^" horiz-adv-x="735" 
d="M686 352h-128l-201 309l-201 -309h-128l260 379h138z" />
    <glyph glyph-name="underscore" unicode="_" horiz-adv-x="441" 
d="M0 -13h441v-109h-441v109z" />
    <glyph glyph-name="grave" unicode="`" horiz-adv-x="156" 
d="M-26 869h68l55 -97h-38z" />
    <glyph glyph-name="a" unicode="a" horiz-adv-x="815" 
d="M777 0h-228l-5 29q-6 31 -32 54l-187 164l-47 -247h-228l165 731h397zM500 280l-83 439l-89 -439h172z" />
    <glyph glyph-name="b" unicode="b" horiz-adv-x="773" 
d="M49 0v731h369q170 0 220 -32t50 -130q0 -45 -11 -83q-15 -49 -66 -72q-32 -15 -96 -22q86 0 136 -46q55 -49 55 -146q0 -71 -16 -110q-21 -50 -73.5 -70t-154.5 -20h-413zM447 570l-173 154v-309h97q43 0 63 9q29 13 35 49q3 19 3 48q-1 28 -25 49zM274 396v-335h97
q50 0 71 14q29 19 29 67v13q0 51 -19 77q-5 7 -54 51z" />
    <glyph glyph-name="c" unicode="c" horiz-adv-x="709" 
d="M663 504h-215v42q0 31 -23 51l-153 132v-614q0 -25 30 -42q27 -14 64 -14q35 0 58.5 14t23.5 42v133h215q0 -132 1 -88q-1 -57 -15 -87q-26 -54 -121 -71q-49 -10 -146 -10h-37q-29 -1 -46 -1q-261 0 -261 147v433q0 86 54 126q44 33 143 40q20 2 147 2q166 0 226 -29
q55 -27 55 -84v-122z" />
    <glyph glyph-name="d" unicode="d" horiz-adv-x="747" 
d="M49 0v731h323q131 0 192 -19q71 -23 96 -99q17 -51 17 -151q0 -304 2 -168q-2 -120 -17.5 -172t-46.5 -77q-56 -45 -243 -45h-323zM431 586l-157 139v-661q2 0 20 -1h33q125 0 125 58v412q0 34 -21 53z" />
    <glyph glyph-name="e" unicode="e" horiz-adv-x="563" 
d="M521 0h-487v731h467v-101h-403l141 -130q15 -13 17.5 -17t2.5 -22v-36h224v-96h-224v-228h262v-101z" />
    <glyph glyph-name="f" unicode="f" horiz-adv-x="539" 
d="M492 630h-394l141 -132q18 -16 19 -18.5t1 -26.5v-49h212v-102h-212v-302h-225v731h458v-101z" />
    <glyph glyph-name="g" unicode="g" horiz-adv-x="748" 
d="M689 500h-215v29q0 28 -25 49l-170 148v-599q0 -25 31 -40t71 -15q39 0 64 13q29 15 29 42v143h-81v108h296v-229q0 -52 -15 -81t-50 -46q-64 -30 -241 -30q-128 0 -200.5 13.5t-105 43.5t-32.5 82v469q0 76 72 107q77 32 253 32q112 0 181 -13t103 -47q27 -27 34 -84
q1 -17 1 -95z" />
    <glyph glyph-name="h" unicode="h" horiz-adv-x="753" 
d="M695 0h-224v218q0 25 -1 27.5t-19 17.5l-171 153v-416h-225v731h225v-300h191v300h224v-731z" />
    <glyph glyph-name="i" unicode="i" horiz-adv-x="338" 
d="M280 0h-225v731h225v-731z" />
    <glyph glyph-name="j" unicode="j" horiz-adv-x="743" 
d="M670 731v-593q0 -147 -260 -147q-18 0 -46 1h-38q-96 0 -146 10q-95 17 -120 71q-14 30 -16 87q1 -44 1 88h215v-133q0 -28 24 -42t58 -14q37 0 65.5 15.5t28.5 40.5v616h234z" />
    <glyph glyph-name="k" unicode="k" horiz-adv-x="730" 
d="M708 0h-223l-163 282q-33 56 -67 60v-342h-225v731h225v-325l191 325h217l-231 -346q31 -1 60.5 -22t45.5 -52z" />
    <glyph glyph-name="l" unicode="l" horiz-adv-x="560" 
d="M530 0h-480v731h225v-459q0 -28 -1 -31t-17 -17l-133 -123h406v-101z" />
    <glyph glyph-name="m" unicode="m" horiz-adv-x="1160" 
d="M1102 0h-196v285l89 335l-273 -620h-287l-273 620l89 -335v-285h-196v731h255l269 -603l268 603h255v-731z" />
    <glyph glyph-name="n" unicode="n" horiz-adv-x="824" 
d="M766 0h-275l-330 621l56 -248v-373h-162v731h270l285 -503v503h156v-731z" />
    <glyph glyph-name="o" unicode="o" 
d="M696 131q0 -52 -32 -82q-63 -58 -284 -58q-117 0 -192 15q-71 13 -103.5 43t-32.5 82v469q0 76 71 107q77 32 251 32t251 -32q71 -31 71 -107v-469zM435 612l-149 119v-621q0 -26 26 -41t62 -15q35 0 61.5 15t26.5 41v442q0 23 -5 34.5t-22 25.5z" />
    <glyph glyph-name="p" unicode="p" horiz-adv-x="708" 
d="M256 262v-262h-225v731h359q191 0 246 -70q29 -37 29 -99v-119q0 -120 -106 -159q-59 -22 -196 -22h-107zM427 574l-171 151v-364h69q62 0 86 10q43 18 43 74v72q0 34 -27 57z" />
    <glyph glyph-name="q" unicode="q" horiz-adv-x="730" 
d="M612 -155h-218q-10 91 -51 146q-210 3 -272 60q-32 30 -32 82v467q0 76 71 107q77 32 251 32t251 -32q71 -31 71 -107v-467q0 -51 -25 -76q-17 -17 -67 -37q-36 -15 -109 -23q34 -22 77 -76q37 -45 53 -76zM449 10v523q0 38 -31 65l-145 125v-531q0 -41 33 -68z" />
    <glyph glyph-name="r" unicode="r" horiz-adv-x="769" 
d="M728 0h-225q-27 47 -27 93v68q0 46 -51 89l-148 127v-377h-224v731h305q263 0 315 -63q28 -35 28 -101v-73q0 -75 -58 -122q-51 -42 -121 -42q35 0 87 -17q57 -19 76 -43q16 -20 16 -59v-118q0 -48 27 -93zM449 576l-172 149v-344h70q62 0 86 10q43 18 43 74v62
q0 25 -27 49z" />
    <glyph glyph-name="s" unicode="s" horiz-adv-x="724" 
d="M666 191q0 -85 -30 -126.5t-93 -56.5q-70 -17 -201 -17q-235 0 -278 68q-18 28 -22 57q-1 11 -1 61v56h205v-31q0 -21 2 -24.5t18 -17.5l175 -154v227q0 34 -14 51q-20 24 -112 39q-131 20 -161 29q-87 26 -104 81q-9 28 -9 127q0 83 26 119t87 48q69 13 188 13
q224 0 274 -57q22 -25 27 -60q1 -11 1 -67v-54h-200v25q0 23 -5 31q-3 4 -24 23l-159 137v-147q0 -59 1 -61q3 -36 23.5 -51t88.5 -27q110 -19 132 -24q91 -21 122 -46q25 -20 34 -55t9 -116z" />
    <glyph glyph-name="t" unicode="t" horiz-adv-x="665" 
d="M638 630h-344l128 -113q31 -28 31 -66v-451h-225v630h-183v101h593v-101z" />
    <glyph glyph-name="u" unicode="u" horiz-adv-x="754" 
d="M53 731h225v-535q0 -38 24 -60l155 -137v732h225v-565q0 -58 -20 -93q-32 -56 -135 -73q-48 -8 -160 -8q-110 0 -160 8q-102 18 -134 74q-20 34 -20 92v565z" />
    <glyph glyph-name="v" unicode="v" horiz-adv-x="793" 
d="M753 731l-145 -731h-416l-145 731h230l139 -674l107 674h230z" />
    <glyph glyph-name="w" unicode="w" horiz-adv-x="1171" 
d="M1075 731l-159 -731h-211l-131 536l-150 -536h-219l-159 731h214l76 -306l83 -349l-43 348l84 307h245l180 -655l-55 349l76 306h169z" />
    <glyph glyph-name="x" unicode="x" horiz-adv-x="673" 
d="M635 731l-135 -346l129 -384h-217l-91 359v-165l-67 -194h-196l135 384l-129 346h217l90 -321v164l68 157h196z" />
    <glyph glyph-name="y" unicode="y" horiz-adv-x="741" 
d="M715 731l-231 -498v-233h-216v233l-231 498h217l107 -219l-30 -191l167 410h217z" />
    <glyph glyph-name="z" unicode="z" horiz-adv-x="651" 
d="M598 0h-539v109l281 474l167 47h-418v101h509v-111l-307 -519h307v-101z" />
    <glyph glyph-name="braceleft" unicode="{" horiz-adv-x="502" 
d="M24 408q41 4 70 21q38 23 38 62v124q0 116 178 116h147v-89q-67 0 -90.5 -13t-27.5 -51q-1 -10 -1 -108q0 -25 -52.5 -57.5t-110.5 -45.5q76 -14 110 -32q53 -26 53 -73q0 -98 1 -108q4 -39 27.5 -52t90.5 -13v-89h-147q-178 0 -178 116v124q0 39 -38 62q-29 17 -70 21
v85z" />
    <glyph glyph-name="bar" unicode="|" horiz-adv-x="251" 
d="M194 -8h-139v747h139v-747z" />
    <glyph glyph-name="braceright" unicode="}" horiz-adv-x="519" 
d="M466 323q-40 -4 -69 -21q-39 -23 -39 -62v-124q0 -116 -178 -116h-147v89q67 0 90.5 13t28.5 52q1 10 1 108q0 47 52 73q35 18 110 32q-57 13 -109.5 45.5t-52.5 57.5q0 98 -2 108q-4 38 -27.5 51t-90.5 13v89h147q178 0 178 -116v-124q0 -39 38 -62q30 -17 70 -21v-85z
" />
    <glyph glyph-name="asciitilde" unicode="~" horiz-adv-x="1414" 
d="M62 293h1v47h67v28h-18v88h18v31h-18v37h439v-46q-7 13 -24 13q-46 0 -46 -77q0 -76 48 -76q15 0 31 19v-17h24v184h374v-26h34v26h360v-524h-1290v293zM938 340v94q0 54 -47 54q-24 0 -31 -24q-9 24 -28 24q-17 0 -27 -24v23h-32v-119h-19v-28h70v28h-19v61q0 23 19 23
q15 0 15 -23v-89h51v28h-19v61q0 22 19 22q15 0 15 -22v-89h33zM986 267h-56v-189h32v122h3l9 -122h58v189h-32v-122h-3zM480 267v-189h79l11 21v62l-8 14v3l8 14v55l-11 20h-79zM826 247v-148l10 -21h67l12 21v148l-11 20h-68zM271 267v-189h38v83h11v-83h41v76l-15 21v3
l15 20v49l-11 20h-79zM256 293h33v56q7 -12 24 -12q46 0 46 76t-48 76q-14 0 -31 -20v18h-24v-194zM475 412q0 78 -55 78q-54 0 -54 -78q0 -76 54 -76q55 0 55 76zM1184 209h38v38l-10 20h-66l-11 -20v-66l12 -20l37 -9v-38h-10v28h-39v-43l11 -21h65l11 21v72l-13 21l-35 8
v33h10v-24zM256 78v69l-26 120h-41l-23 -120v-69h37v36h13v-36h40zM464 78v69l-24 120h-41l-23 -120v-69h38v36h12v-36h38zM169 293h21q55 6 55 71v123h-33v-91q0 -26 -20 -26q-19 0 -19 26v91h-32v-85q0 -64 46 -64q14 0 25 8q0 -23 -28 -23h-15v-30zM678 159h26v33h-26v35
h26v40h-64v-189h64v42h-26v39zM786 156h24v33h-24v38h24v40h-63v-189h39v78zM1064 227v-149h39v149h21v40h-81v-40h21zM685 487h-15v-23q-11 26 -33 26q-43 0 -43 -43q0 -27 22 -36q-23 -9 -23 -33q1 -42 45 -42q22 0 34.5 13t12.5 40h-15q-3 -19 -25 -19q-20 0 -20 14
q0 18 20 18h10v18h-10q-20 0 -20 17q0 16 20 16q17 0 25 -20h15v54zM1096 485h-16v-21q-12 26 -30 26q-50 0 -50 -78q0 -75 51 -75q36 0 45 58h-16q-3 -23 -25 -23q-23 0 -23 40q0 41 23 41t25 -27h16v59zM151 120h-22v147h-38v-189h60v42zM625 78v189h-39v-189h39zM740 368
h-14v65q0 20 14 20q6 0 12 -6l11 33q-8 7 -17 8q-21 0 -31 -24v23h-19v-147h44v28zM943 487v-31h15v-116h34v147h-49zM286 437q6 15 21 15q21 0 21 -38q0 -43 -22 -43q-14 0 -20 16v50zM442 412q0 -40 -22 -40q-21 0 -21 40q0 41 21 41q22 0 22 -41zM553 389q-6 -14 -20 -14
q-21 0 -21 38q0 43 22 43q13 0 19 -16v-51zM63 368v88h19v-88h-19zM864 114v119h11v-119h-11zM63 487v37h19v-37h-19zM203 142v19l6 50h2l5 -50v-19h-13zM414 142v19l5 50h3l4 -50v-19h-12zM519 161h11v-47h-11v47zM519 192v41h11v-41h-11zM309 192v41h11v-41h-11z" />
    <glyph glyph-name="quoteleft" unicode="&#x2018;" horiz-adv-x="338" 
d="M270 416h-196v176q0 131 188 139v-50q-98 -15 -93 -90q1 -26 1 -39h100v-136z" />
    <glyph glyph-name="quoteright" unicode="&#x2019;" horiz-adv-x="337" 
d="M271 731v-175q0 -131 -188 -140v50q50 8 71.5 28.5t21.5 63.5q0 16 -3 38h-98v135h196z" />
    <glyph glyph-name="quotesinglbase" unicode="&#x201a;" horiz-adv-x="348" 
d="M275 156v-176q0 -131 -189 -140v50q50 8 71.5 28t21.5 63q0 17 -3 38h-97v137h196z" />
    <glyph glyph-name="quotedblleft" unicode="&#x201c;" horiz-adv-x="641" 
d="M573 416h-196v176q0 131 188 139v-50q-93 -14 -93 -89q0 -17 4 -40h97v-136zM267 416h-196v176q0 71 55 104q52 31 132 35v-50q-92 -14 -92 -88q0 -18 4 -41h97v-136z" />
    <glyph glyph-name="quotedblright" unicode="&#x201d;" horiz-adv-x="640" 
d="M574 731v-175q0 -131 -188 -140v50q93 14 93 89q0 18 -4 41h-97v135h196zM268 731v-175q0 -131 -188 -140v50q93 14 93 89q0 18 -4 41h-97v135h196z" />
    <glyph glyph-name="quotedblbase" unicode="&#x201e;" horiz-adv-x="651" 
d="M578 156v-176q0 -131 -189 -140v50q94 14 94 88q0 19 -5 41h-96v137h196zM272 156v-176q0 -132 -189 -140v50q94 14 94 88q0 19 -5 41h-97v137h197z" />
    <glyph glyph-name="bullet" unicode="&#x2022;" horiz-adv-x="646" 
d="M581 366q0 -36 -20 -69q-34 -55 -104 -85q-63 -28 -142 -28q-108 0 -186 48q-85 52 -85 134q0 47 36 90t100 67.5t136 24.5q78 0 142 -28q70 -30 103 -85q20 -32 20 -69z" />
    <glyph glyph-name="ellipsis" unicode="&#x2026;" horiz-adv-x="2323" 
d="M588 0h-196v156h196v-156zM1251 0h-196v156h196v-156zM1914 0h-196v156h196v-156z" />
    <glyph glyph-name="germandbls" unicode="&#xdf;" horiz-adv-x="1448" 
d="M666 191q0 -85 -30 -126.5t-93 -56.5q-70 -17 -201 -17q-235 0 -278 68q-18 28 -22 57q-1 11 -1 61v56h205v-31q0 -21 2 -24.5t18 -17.5l175 -154v227q0 34 -14 51q-20 24 -112 39q-131 20 -161 29q-87 26 -104 81q-9 28 -9 127q0 83 26 119t87 48q69 13 188 13
q224 0 274 -57q22 -25 27 -60q1 -11 1 -67v-54h-200v25q0 23 -5 31q-3 4 -24 23l-159 137v-147q0 -59 1 -61q3 -36 23.5 -51t88.5 -27q110 -19 132 -24q91 -21 122 -46q25 -20 34 -55t9 -116zM1390 191q0 -85 -30 -126.5t-93 -56.5q-70 -17 -201 -17q-235 0 -278 68
q-18 28 -22 57q-1 11 -1 61v56h205v-31q0 -21 2 -24.5t18 -17.5l175 -154v227q0 34 -14 51q-20 24 -112 39q-131 20 -161 29q-87 26 -104 81q-9 28 -9 127q0 83 26 119t87 48q69 13 188 13q224 0 274 -57q22 -25 27 -60q1 -11 1 -67v-54h-200v25q0 23 -5 31q-3 4 -24 23
l-159 137v-147q0 -59 1 -61q3 -36 23.5 -51t88.5 -27q110 -19 132 -24q91 -21 122 -46q25 -20 34 -55t9 -116z" />
    <glyph glyph-name="copyright" unicode="&#xa9;" horiz-adv-x="635" 
d="M41 277q0 57 22 108t59.5 88.5t88.5 59.5t108 22t108 -22t88.5 -59.5t59.5 -88.5t22 -108t-22 -108t-59.5 -88.5t-88.5 -59.5t-108 -22t-108 22t-88.5 59.5t-59.5 88.5t-22 108zM74 276q0 -51 19.5 -96t52.5 -78t78 -52.5t96 -19.5t96 19.5t78.5 52.5t53 78t19.5 96
t-19.5 96t-53 79t-78.5 53.5t-96 19.5t-96 -19.5t-78 -53.5t-52.5 -79t-19.5 -96zM378 346q-26 36 -63 36q-35 0 -56 -29t-21 -80q0 -48 22.5 -78t55.5 -30q17 0 33.5 8.5t28.5 22.5l50 -34q-38 -62 -113 -62q-30 0 -55.5 13t-44 36.5t-29 55t-10.5 68.5t9.5 69t27.5 55.5
t44 36.5t58 13q78 0 115 -67z" />
    <glyph glyph-name="registered" unicode="&#xae;" horiz-adv-x="540" 
d="M270 524q-42 0 -75.5 -15t-57 -39t-36 -55t-12.5 -62q0 -32 12.5 -63t36 -55t57 -39t75.5 -15q39 0 74.5 13t61.5 36.5t41.5 55t15.5 67.5q0 31 -14.5 62t-40 55t-61 39t-77.5 15zM271 142q-49 0 -90 17.5t-71 46.5t-46.5 67t-16.5 80q0 43 16.5 81.5t46.5 67.5t71 46
t90 17t91 -16.5t72.5 -45t47.5 -67t17 -83.5q0 -42 -17.5 -80t-48 -67t-72.5 -46.5t-90 -17.5zM246 418v-52h38q24 0 24 25q0 27 -24 27h-38zM270 319h-24v-84h-45v229h82q32 0 51.5 -19t19.5 -54q0 -23 -9 -37.5t-29 -27.5l41 -91h-48z" />
    <glyph glyph-name="guilsinglleft" unicode="&#x2039;" horiz-adv-x="230" 
d="M95 302l102 -48v-60l-156 77v59l156 81v-62z" />
    <glyph glyph-name="trademark" unicode="&#x2122;" horiz-adv-x="561" 
d="M173 484v-223h-59v223h-71v54h199v-54h-69zM448 414l-60 -154l-66 160v-158h-55v277h67l53 -143l52 143h65v-277h-56v152z" />
    <glyph glyph-name="guilsinglright" unicode="&#x203a;" horiz-adv-x="230" 
d="M143 304l-102 47v60l156 -77v-59l-156 -81v62z" />
    <glyph glyph-name="guillemotleft" unicode="&#xab;" horiz-adv-x="374" 
d="M95 302l102 -48v-60l-156 77v59l156 81v-62zM243 302l102 -48v-60l-156 77v59l156 81v-62z" />
    <glyph glyph-name="guillemotright" unicode="&#xbb;" horiz-adv-x="386" 
d="M302 304l-102 47v60l156 -77v-59l-156 -81v62zM154 304l-102 47v60l156 -77v-59l-156 -81v62z" />
    <glyph glyph-name="circumflex" unicode="&#x2c6;" horiz-adv-x="270" 
d="M134 848l-49 -65h-62l81 96h59l83 -96h-63z" />
    <glyph glyph-name="tilde" unicode="&#x2dc;" horiz-adv-x="313" 
d="M277 832q-18 -48 -73 -48q-14 0 -24.5 4.5t-20.5 10t-20 10t-21 4.5q-12 0 -24 -7.5t-24 -26.5l-35 30q15 28 33.5 40t41.5 12q18 0 29.5 -4t21 -9.5t18.5 -9.5t22 -4q29 0 45 34z" />
    <glyph glyph-name="dieresis" unicode="&#xa8;" horiz-adv-x="336" 
d="M99 794q-20 0 -32.5 13.5t-12.5 32.5q0 20 12.5 33t32.5 13q19 0 32.5 -13t13.5 -33q0 -19 -13.5 -32.5t-32.5 -13.5zM237 794q-18 0 -31.5 13.5t-13.5 32.5q0 20 13.5 33t31.5 13q20 0 32.5 -13t12.5 -33q0 -19 -12.5 -32.5t-32.5 -13.5z" />
    <glyph glyph-name="acute" unicode="&#xb4;" horiz-adv-x="155" 
d="M90 774h-38l55 97h68z" />
    <glyph glyph-name="cedilla" unicode="&#xb8;" horiz-adv-x="181" 
d="M103 7v-36q50 0 50 -45q0 -29 -15 -41t-47 -12q-11 0 -20.5 2t-14.5 4l10 34q8 -4 24 -4q28 0 28 14q0 8 -4.5 11t-16.5 3h-12q-2 0 -5.5 -0.5t-8.5 -1.5v72h32z" />
    <glyph glyph-name="ring" unicode="&#x2da;" horiz-adv-x="229" 
d="M115 892q-15 0 -27 -12t-12 -29q0 -18 11.5 -29.5t27.5 -11.5q17 0 29 11.5t12 29.5q0 17 -12.5 29t-28.5 12zM114 789q-26 0 -43 17t-17 43q0 27 17 45.5t43 18.5t43.5 -19t17.5 -45t-17.5 -43t-43.5 -17z" />
    <glyph glyph-name="dotlessi" unicode="&#x131;" horiz-adv-x="338" 
d="M280 0h-225v731h225v-731z" />
    <glyph glyph-name="Ydieresis" unicode="&#x178;" horiz-adv-x="741" 
d="M715 731l-231 -498v-233h-216v233l-231 498h217l107 -219l-30 -191l167 410h217zM301 794q-20 0 -32.5 13.5t-12.5 32.5q0 20 12.5 33t32.5 13q19 0 32.5 -13t13.5 -33q0 -19 -13.5 -32.5t-32.5 -13.5zM439 794q-18 0 -31.5 13.5t-13.5 32.5q0 20 13.5 33t31.5 13
q20 0 32.5 -13t12.5 -33q0 -19 -12.5 -32.5t-32.5 -13.5z" />
    <glyph glyph-name="Agrave" unicode="&#xc0;" horiz-adv-x="815" 
d="M777 0h-228l-5 29q-6 31 -32 54l-187 164l-47 -247h-228l165 731h397zM500 280l-83 439l-89 -439h172zM346 869h68l55 -97h-38z" />
    <glyph glyph-name="Aacute" unicode="&#xc1;" horiz-adv-x="815" 
d="M777 0h-228l-5 29q-6 31 -32 54l-187 164l-47 -247h-228l165 731h397zM500 280l-83 439l-89 -439h172zM384 774h-38l55 97h68z" />
    <glyph glyph-name="Acircumflex" unicode="&#xc2;" horiz-adv-x="815" 
d="M777 0h-228l-5 29q-6 31 -32 54l-187 164l-47 -247h-228l165 731h397zM500 280l-83 439l-89 -439h172zM407 848l-49 -65h-62l81 96h59l83 -96h-63z" />
    <glyph glyph-name="Atilde" unicode="&#xc3;" horiz-adv-x="815" 
d="M777 0h-228l-5 29q-6 31 -32 54l-187 164l-47 -247h-228l165 731h397zM500 280l-83 439l-89 -439h172zM528 832q-18 -48 -73 -48q-14 0 -24.5 4.5t-20.5 10t-20 10t-21 4.5q-12 0 -24 -7.5t-24 -26.5l-35 30q15 28 33.5 40t41.5 12q18 0 29.5 -4t21 -9.5t18.5 -9.5t22 -4
q29 0 45 34z" />
    <glyph glyph-name="Adieresis" unicode="&#xc4;" horiz-adv-x="815" 
d="M777 0h-228l-5 29q-6 31 -32 54l-187 164l-47 -247h-228l165 731h397zM500 280l-83 439l-89 -439h172zM338 794q-20 0 -32.5 13.5t-12.5 32.5q0 20 12.5 33t32.5 13q19 0 32.5 -13t13.5 -33q0 -19 -13.5 -32.5t-32.5 -13.5zM476 794q-18 0 -31.5 13.5t-13.5 32.5
q0 20 13.5 33t31.5 13q20 0 32.5 -13t12.5 -33q0 -19 -12.5 -32.5t-32.5 -13.5z" />
    <glyph glyph-name="Aring" unicode="&#xc5;" horiz-adv-x="815" 
d="M777 0h-228l-5 29q-6 31 -32 54l-187 164l-47 -247h-228l165 731h397zM500 280l-83 439l-89 -439h172zM408 892q-15 0 -27 -12t-12 -29q0 -18 11.5 -29.5t27.5 -11.5q17 0 29 11.5t12 29.5q0 17 -12.5 29t-28.5 12zM407 789q-26 0 -43 17t-17 43q0 27 17 45.5t43 18.5
t43.5 -19t17.5 -45t-17.5 -43t-43.5 -17z" />
    <glyph glyph-name="Ccedilla" unicode="&#xc7;" horiz-adv-x="709" 
d="M663 504h-215v42q0 31 -23 51l-153 132v-614q0 -25 30 -42q27 -14 64 -14q35 0 58.5 14t23.5 42v133h215q0 -132 1 -88q-1 -57 -15 -87q-26 -54 -121 -71q-49 -10 -146 -10h-37q-29 -1 -46 -1q-261 0 -261 147v433q0 86 54 126q44 33 143 40q20 2 147 2q166 0 226 -29
q55 -27 55 -84v-122zM353 7v-36q50 0 50 -45q0 -29 -15 -41t-47 -12q-11 0 -20.5 2t-14.5 4l10 34q8 -4 24 -4q28 0 28 14q0 8 -4.5 11t-16.5 3h-12q-2 0 -5.5 -0.5t-8.5 -1.5v72h32z" />
    <glyph glyph-name="Egrave" unicode="&#xc8;" horiz-adv-x="563" 
d="M521 0h-487v731h467v-101h-403l141 -130q15 -13 17.5 -17t2.5 -22v-36h224v-96h-224v-228h262v-101zM220 869h68l55 -97h-38z" />
    <glyph glyph-name="Eacute" unicode="&#xc9;" horiz-adv-x="563" 
d="M521 0h-487v731h467v-101h-403l141 -130q15 -13 17.5 -17t2.5 -22v-36h224v-96h-224v-228h262v-101zM258 774h-38l55 97h68z" />
    <glyph glyph-name="Ecircumflex" unicode="&#xca;" horiz-adv-x="563" 
d="M521 0h-487v731h467v-101h-403l141 -130q15 -13 17.5 -17t2.5 -22v-36h224v-96h-224v-228h262v-101zM281 848l-49 -65h-62l81 96h59l83 -96h-63z" />
    <glyph glyph-name="Edieresis" unicode="&#xcb;" horiz-adv-x="563" 
d="M521 0h-487v731h467v-101h-403l141 -130q15 -13 17.5 -17t2.5 -22v-36h224v-96h-224v-228h262v-101zM212 794q-20 0 -32.5 13.5t-12.5 32.5q0 20 12.5 33t32.5 13q19 0 32.5 -13t13.5 -33q0 -19 -13.5 -32.5t-32.5 -13.5zM350 794q-18 0 -31.5 13.5t-13.5 32.5
q0 20 13.5 33t31.5 13q20 0 32.5 -13t12.5 -33q0 -19 -12.5 -32.5t-32.5 -13.5z" />
    <glyph glyph-name="Igrave" unicode="&#xcc;" horiz-adv-x="338" 
d="M280 0h-225v731h225v-731zM107 869h68l55 -97h-38z" />
    <glyph glyph-name="Iacute" unicode="&#xcd;" horiz-adv-x="338" 
d="M280 0h-225v731h225v-731zM145 774h-38l55 97h68z" />
    <glyph glyph-name="Icircumflex" unicode="&#xce;" horiz-adv-x="338" 
d="M280 0h-225v731h225v-731zM168 848l-49 -65h-62l81 96h59l83 -96h-63z" />
    <glyph glyph-name="Idieresis" unicode="&#xcf;" horiz-adv-x="338" 
d="M280 0h-225v731h225v-731zM100 794q-20 0 -32.5 13.5t-12.5 32.5q0 20 12.5 33t32.5 13q19 0 32.5 -13t13.5 -33q0 -19 -13.5 -32.5t-32.5 -13.5zM238 794q-18 0 -31.5 13.5t-13.5 32.5q0 20 13.5 33t31.5 13q20 0 32.5 -13t12.5 -33q0 -19 -12.5 -32.5t-32.5 -13.5z" />
    <glyph glyph-name="Ntilde" unicode="&#xd1;" horiz-adv-x="824" 
d="M766 0h-275l-330 621l56 -248v-373h-162v731h270l285 -503v503h156v-731zM533 832q-18 -48 -73 -48q-14 0 -24.5 4.5t-20.5 10t-20 10t-21 4.5q-12 0 -24 -7.5t-24 -26.5l-35 30q15 28 33.5 40t41.5 12q18 0 29.5 -4t21 -9.5t18.5 -9.5t22 -4q29 0 45 34z" />
    <glyph glyph-name="Ograve" unicode="&#xd2;" 
d="M696 131q0 -52 -32 -82q-63 -58 -284 -58q-117 0 -192 15q-71 13 -103.5 43t-32.5 82v469q0 76 71 107q77 32 251 32t251 -32q71 -31 71 -107v-469zM435 612l-149 119v-621q0 -26 26 -41t62 -15q35 0 61.5 15t26.5 41v442q0 23 -5 34.5t-22 25.5zM321 869h68l55 -97h-38z
" />
    <glyph glyph-name="Oacute" unicode="&#xd3;" 
d="M696 131q0 -52 -32 -82q-63 -58 -284 -58q-117 0 -192 15q-71 13 -103.5 43t-32.5 82v469q0 76 71 107q77 32 251 32t251 -32q71 -31 71 -107v-469zM435 612l-149 119v-621q0 -26 26 -41t62 -15q35 0 61.5 15t26.5 41v442q0 23 -5 34.5t-22 25.5zM359 774h-38l55 97h68z
" />
    <glyph glyph-name="Ocircumflex" unicode="&#xd4;" 
d="M696 131q0 -52 -32 -82q-63 -58 -284 -58q-117 0 -192 15q-71 13 -103.5 43t-32.5 82v469q0 76 71 107q77 32 251 32t251 -32q71 -31 71 -107v-469zM435 612l-149 119v-621q0 -26 26 -41t62 -15q35 0 61.5 15t26.5 41v442q0 23 -5 34.5t-22 25.5zM382 848l-49 -65h-62
l81 96h59l83 -96h-63z" />
    <glyph glyph-name="Otilde" unicode="&#xd5;" 
d="M696 131q0 -52 -32 -82q-63 -58 -284 -58q-117 0 -192 15q-71 13 -103.5 43t-32.5 82v469q0 76 71 107q77 32 251 32t251 -32q71 -31 71 -107v-469zM435 612l-149 119v-621q0 -26 26 -41t62 -15q35 0 61.5 15t26.5 41v442q0 23 -5 34.5t-22 25.5zM504 832
q-18 -48 -73 -48q-14 0 -24.5 4.5t-20.5 10t-20 10t-21 4.5q-12 0 -24 -7.5t-24 -26.5l-35 30q15 28 33.5 40t41.5 12q18 0 29.5 -4t21 -9.5t18.5 -9.5t22 -4q29 0 45 34z" />
    <glyph glyph-name="Odieresis" unicode="&#xd6;" 
d="M696 131q0 -52 -32 -82q-63 -58 -284 -58q-117 0 -192 15q-71 13 -103.5 43t-32.5 82v469q0 76 71 107q77 32 251 32t251 -32q71 -31 71 -107v-469zM435 612l-149 119v-621q0 -26 26 -41t62 -15q35 0 61.5 15t26.5 41v442q0 23 -5 34.5t-22 25.5zM314 794
q-20 0 -32.5 13.5t-12.5 32.5q0 20 12.5 33t32.5 13q19 0 32.5 -13t13.5 -33q0 -19 -13.5 -32.5t-32.5 -13.5zM452 794q-18 0 -31.5 13.5t-13.5 32.5q0 20 13.5 33t31.5 13q20 0 32.5 -13t12.5 -33q0 -19 -12.5 -32.5t-32.5 -13.5z" />
    <glyph glyph-name="Ugrave" unicode="&#xd9;" horiz-adv-x="754" 
d="M53 731h225v-535q0 -38 24 -60l155 -137v732h225v-565q0 -58 -20 -93q-32 -56 -135 -73q-48 -8 -160 -8q-110 0 -160 8q-102 18 -134 74q-20 34 -20 92v565zM315 869h68l55 -97h-38z" />
    <glyph glyph-name="Uacute" unicode="&#xda;" horiz-adv-x="754" 
d="M53 731h225v-535q0 -38 24 -60l155 -137v732h225v-565q0 -58 -20 -93q-32 -56 -135 -73q-48 -8 -160 -8q-110 0 -160 8q-102 18 -134 74q-20 34 -20 92v565zM353 774h-38l55 97h68z" />
    <glyph glyph-name="Ucircumflex" unicode="&#xdb;" horiz-adv-x="754" 
d="M53 731h225v-535q0 -38 24 -60l155 -137v732h225v-565q0 -58 -20 -93q-32 -56 -135 -73q-48 -8 -160 -8q-110 0 -160 8q-102 18 -134 74q-20 34 -20 92v565zM376 848l-49 -65h-62l81 96h59l83 -96h-63z" />
    <glyph glyph-name="Udieresis" unicode="&#xdc;" horiz-adv-x="754" 
d="M53 731h225v-535q0 -38 24 -60l155 -137v732h225v-565q0 -58 -20 -93q-32 -56 -135 -73q-48 -8 -160 -8q-110 0 -160 8q-102 18 -134 74q-20 34 -20 92v565zM308 794q-20 0 -32.5 13.5t-12.5 32.5q0 20 12.5 33t32.5 13q19 0 32.5 -13t13.5 -33q0 -19 -13.5 -32.5
t-32.5 -13.5zM446 794q-18 0 -31.5 13.5t-13.5 32.5q0 20 13.5 33t31.5 13q20 0 32.5 -13t12.5 -33q0 -19 -12.5 -32.5t-32.5 -13.5z" />
    <glyph glyph-name="Yacute" unicode="&#xdd;" horiz-adv-x="741" 
d="M715 731l-231 -498v-233h-216v233l-231 498h217l107 -219l-30 -191l167 410h217zM347 774h-38l55 97h68z" />
    <glyph glyph-name="agrave" unicode="&#xe0;" horiz-adv-x="815" 
d="M777 0h-228l-5 29q-6 31 -32 54l-187 164l-47 -247h-228l165 731h397zM500 280l-83 439l-89 -439h172zM346 869h68l55 -97h-38z" />
    <glyph glyph-name="aacute" unicode="&#xe1;" horiz-adv-x="815" 
d="M777 0h-228l-5 29q-6 31 -32 54l-187 164l-47 -247h-228l165 731h397zM500 280l-83 439l-89 -439h172zM384 774h-38l55 97h68z" />
    <glyph glyph-name="acircumflex" unicode="&#xe2;" horiz-adv-x="815" 
d="M777 0h-228l-5 29q-6 31 -32 54l-187 164l-47 -247h-228l165 731h397zM500 280l-83 439l-89 -439h172zM407 848l-49 -65h-62l81 96h59l83 -96h-63z" />
    <glyph glyph-name="atilde" unicode="&#xe3;" horiz-adv-x="815" 
d="M777 0h-228l-5 29q-6 31 -32 54l-187 164l-47 -247h-228l165 731h397zM500 280l-83 439l-89 -439h172zM528 832q-18 -48 -73 -48q-14 0 -24.5 4.5t-20.5 10t-20 10t-21 4.5q-12 0 -24 -7.5t-24 -26.5l-35 30q15 28 33.5 40t41.5 12q18 0 29.5 -4t21 -9.5t18.5 -9.5t22 -4
q29 0 45 34z" />
    <glyph glyph-name="adieresis" unicode="&#xe4;" horiz-adv-x="815" 
d="M777 0h-228l-5 29q-6 31 -32 54l-187 164l-47 -247h-228l165 731h397zM500 280l-83 439l-89 -439h172zM338 794q-20 0 -32.5 13.5t-12.5 32.5q0 20 12.5 33t32.5 13q19 0 32.5 -13t13.5 -33q0 -19 -13.5 -32.5t-32.5 -13.5zM476 794q-18 0 -31.5 13.5t-13.5 32.5
q0 20 13.5 33t31.5 13q20 0 32.5 -13t12.5 -33q0 -19 -12.5 -32.5t-32.5 -13.5z" />
    <glyph glyph-name="aring" unicode="&#xe5;" horiz-adv-x="815" 
d="M777 0h-228l-5 29q-6 31 -32 54l-187 164l-47 -247h-228l165 731h397zM500 280l-83 439l-89 -439h172zM408 892q-15 0 -27 -12t-12 -29q0 -18 11.5 -29.5t27.5 -11.5q17 0 29 11.5t12 29.5q0 17 -12.5 29t-28.5 12zM407 789q-26 0 -43 17t-17 43q0 27 17 45.5t43 18.5
t43.5 -19t17.5 -45t-17.5 -43t-43.5 -17z" />
    <glyph glyph-name="ccedilla" unicode="&#xe7;" horiz-adv-x="709" 
d="M663 504h-215v42q0 31 -23 51l-153 132v-614q0 -25 30 -42q27 -14 64 -14q35 0 58.5 14t23.5 42v133h215q0 -132 1 -88q-1 -57 -15 -87q-26 -54 -121 -71q-49 -10 -146 -10h-37q-29 -1 -46 -1q-261 0 -261 147v433q0 86 54 126q44 33 143 40q20 2 147 2q166 0 226 -29
q55 -27 55 -84v-122zM353 7v-36q50 0 50 -45q0 -29 -15 -41t-47 -12q-11 0 -20.5 2t-14.5 4l10 34q8 -4 24 -4q28 0 28 14q0 8 -4.5 11t-16.5 3h-12q-2 0 -5.5 -0.5t-8.5 -1.5v72h32z" />
    <glyph glyph-name="egrave" unicode="&#xe8;" horiz-adv-x="563" 
d="M521 0h-487v731h467v-101h-403l141 -130q15 -13 17.5 -17t2.5 -22v-36h224v-96h-224v-228h262v-101zM220 869h68l55 -97h-38z" />
    <glyph glyph-name="eacute" unicode="&#xe9;" horiz-adv-x="563" 
d="M521 0h-487v731h467v-101h-403l141 -130q15 -13 17.5 -17t2.5 -22v-36h224v-96h-224v-228h262v-101zM258 774h-38l55 97h68z" />
    <glyph glyph-name="ecircumflex" unicode="&#xea;" horiz-adv-x="563" 
d="M521 0h-487v731h467v-101h-403l141 -130q15 -13 17.5 -17t2.5 -22v-36h224v-96h-224v-228h262v-101zM281 848l-49 -65h-62l81 96h59l83 -96h-63z" />
    <glyph glyph-name="edieresis" unicode="&#xeb;" horiz-adv-x="563" 
d="M521 0h-487v731h467v-101h-403l141 -130q15 -13 17.5 -17t2.5 -22v-36h224v-96h-224v-228h262v-101zM212 794q-20 0 -32.5 13.5t-12.5 32.5q0 20 12.5 33t32.5 13q19 0 32.5 -13t13.5 -33q0 -19 -13.5 -32.5t-32.5 -13.5zM350 794q-18 0 -31.5 13.5t-13.5 32.5
q0 20 13.5 33t31.5 13q20 0 32.5 -13t12.5 -33q0 -19 -12.5 -32.5t-32.5 -13.5z" />
    <glyph glyph-name="igrave" unicode="&#xec;" horiz-adv-x="338" 
d="M280 0h-225v731h225v-731zM107 869h68l55 -97h-38z" />
    <glyph glyph-name="iacute" unicode="&#xed;" horiz-adv-x="338" 
d="M280 0h-225v731h225v-731zM145 774h-38l55 97h68z" />
    <glyph glyph-name="icircumflex" unicode="&#xee;" horiz-adv-x="338" 
d="M280 0h-225v731h225v-731zM168 848l-49 -65h-62l81 96h59l83 -96h-63z" />
    <glyph glyph-name="idieresis" unicode="&#xef;" horiz-adv-x="338" 
d="M280 0h-225v731h225v-731zM100 794q-20 0 -32.5 13.5t-12.5 32.5q0 20 12.5 33t32.5 13q19 0 32.5 -13t13.5 -33q0 -19 -13.5 -32.5t-32.5 -13.5zM238 794q-18 0 -31.5 13.5t-13.5 32.5q0 20 13.5 33t31.5 13q20 0 32.5 -13t12.5 -33q0 -19 -12.5 -32.5t-32.5 -13.5z" />
    <glyph glyph-name="ntilde" unicode="&#xf1;" horiz-adv-x="824" 
d="M766 0h-275l-330 621l56 -248v-373h-162v731h270l285 -503v503h156v-731zM533 832q-18 -48 -73 -48q-14 0 -24.5 4.5t-20.5 10t-20 10t-21 4.5q-12 0 -24 -7.5t-24 -26.5l-35 30q15 28 33.5 40t41.5 12q18 0 29.5 -4t21 -9.5t18.5 -9.5t22 -4q29 0 45 34z" />
    <glyph glyph-name="ograve" unicode="&#xf2;" 
d="M696 131q0 -52 -32 -82q-63 -58 -284 -58q-117 0 -192 15q-71 13 -103.5 43t-32.5 82v469q0 76 71 107q77 32 251 32t251 -32q71 -31 71 -107v-469zM435 612l-149 119v-621q0 -26 26 -41t62 -15q35 0 61.5 15t26.5 41v442q0 23 -5 34.5t-22 25.5zM321 869h68l55 -97h-38z
" />
    <glyph glyph-name="oacute" unicode="&#xf3;" 
d="M696 131q0 -52 -32 -82q-63 -58 -284 -58q-117 0 -192 15q-71 13 -103.5 43t-32.5 82v469q0 76 71 107q77 32 251 32t251 -32q71 -31 71 -107v-469zM435 612l-149 119v-621q0 -26 26 -41t62 -15q35 0 61.5 15t26.5 41v442q0 23 -5 34.5t-22 25.5zM359 774h-38l55 97h68z
" />
    <glyph glyph-name="ocircumflex" unicode="&#xf4;" 
d="M696 131q0 -52 -32 -82q-63 -58 -284 -58q-117 0 -192 15q-71 13 -103.5 43t-32.5 82v469q0 76 71 107q77 32 251 32t251 -32q71 -31 71 -107v-469zM435 612l-149 119v-621q0 -26 26 -41t62 -15q35 0 61.5 15t26.5 41v442q0 23 -5 34.5t-22 25.5zM382 848l-49 -65h-62
l81 96h59l83 -96h-63z" />
    <glyph glyph-name="otilde" unicode="&#xf5;" 
d="M696 131q0 -52 -32 -82q-63 -58 -284 -58q-117 0 -192 15q-71 13 -103.5 43t-32.5 82v469q0 76 71 107q77 32 251 32t251 -32q71 -31 71 -107v-469zM435 612l-149 119v-621q0 -26 26 -41t62 -15q35 0 61.5 15t26.5 41v442q0 23 -5 34.5t-22 25.5zM504 832
q-18 -48 -73 -48q-14 0 -24.5 4.5t-20.5 10t-20 10t-21 4.5q-12 0 -24 -7.5t-24 -26.5l-35 30q15 28 33.5 40t41.5 12q18 0 29.5 -4t21 -9.5t18.5 -9.5t22 -4q29 0 45 34z" />
    <glyph glyph-name="odieresis" unicode="&#xf6;" 
d="M696 131q0 -52 -32 -82q-63 -58 -284 -58q-117 0 -192 15q-71 13 -103.5 43t-32.5 82v469q0 76 71 107q77 32 251 32t251 -32q71 -31 71 -107v-469zM435 612l-149 119v-621q0 -26 26 -41t62 -15q35 0 61.5 15t26.5 41v442q0 23 -5 34.5t-22 25.5zM314 794
q-20 0 -32.5 13.5t-12.5 32.5q0 20 12.5 33t32.5 13q19 0 32.5 -13t13.5 -33q0 -19 -13.5 -32.5t-32.5 -13.5zM452 794q-18 0 -31.5 13.5t-13.5 32.5q0 20 13.5 33t31.5 13q20 0 32.5 -13t12.5 -33q0 -19 -12.5 -32.5t-32.5 -13.5z" />
    <glyph glyph-name="ugrave" unicode="&#xf9;" horiz-adv-x="754" 
d="M53 731h225v-535q0 -38 24 -60l155 -137v732h225v-565q0 -58 -20 -93q-32 -56 -135 -73q-48 -8 -160 -8q-110 0 -160 8q-102 18 -134 74q-20 34 -20 92v565zM315 869h68l55 -97h-38z" />
    <glyph glyph-name="uacute" unicode="&#xfa;" horiz-adv-x="754" 
d="M53 731h225v-535q0 -38 24 -60l155 -137v732h225v-565q0 -58 -20 -93q-32 -56 -135 -73q-48 -8 -160 -8q-110 0 -160 8q-102 18 -134 74q-20 34 -20 92v565zM353 774h-38l55 97h68z" />
    <glyph glyph-name="ucircumflex" unicode="&#xfb;" horiz-adv-x="754" 
d="M53 731h225v-535q0 -38 24 -60l155 -137v732h225v-565q0 -58 -20 -93q-32 -56 -135 -73q-48 -8 -160 -8q-110 0 -160 8q-102 18 -134 74q-20 34 -20 92v565zM376 848l-49 -65h-62l81 96h59l83 -96h-63z" />
    <glyph glyph-name="udieresis" unicode="&#xfc;" horiz-adv-x="754" 
d="M53 731h225v-535q0 -38 24 -60l155 -137v732h225v-565q0 -58 -20 -93q-32 -56 -135 -73q-48 -8 -160 -8q-110 0 -160 8q-102 18 -134 74q-20 34 -20 92v565zM308 794q-20 0 -32.5 13.5t-12.5 32.5q0 20 12.5 33t32.5 13q19 0 32.5 -13t13.5 -33q0 -19 -13.5 -32.5
t-32.5 -13.5zM446 794q-18 0 -31.5 13.5t-13.5 32.5q0 20 13.5 33t31.5 13q20 0 32.5 -13t12.5 -33q0 -19 -12.5 -32.5t-32.5 -13.5z" />
    <glyph glyph-name="yacute" unicode="&#xfd;" horiz-adv-x="741" 
d="M715 731l-231 -498v-233h-216v233l-231 498h217l107 -219l-30 -191l167 410h217zM347 774h-38l55 97h68z" />
    <glyph glyph-name="ydieresis" unicode="&#xff;" horiz-adv-x="741" 
d="M715 731l-231 -498v-233h-216v233l-231 498h217l107 -219l-30 -191l167 410h217zM301 794q-20 0 -32.5 13.5t-12.5 32.5q0 20 12.5 33t32.5 13q19 0 32.5 -13t13.5 -33q0 -19 -13.5 -32.5t-32.5 -13.5zM439 794q-18 0 -31.5 13.5t-13.5 32.5q0 20 13.5 33t31.5 13
q20 0 32.5 -13t12.5 -33q0 -19 -12.5 -32.5t-32.5 -13.5z" />
    <glyph glyph-name="Oslash" unicode="&#xd8;" 
d="M622 773l-31 -55q19 -5 34 -11q71 -31 71 -107v-469q0 -52 -32 -82q-63 -58 -284 -58q-112 0 -185 13l-32 -57h-75l41 75q-28 11 -45 27q-32 30 -32 82v469q0 76 71 107q77 32 251 32q87 0 150 -8l24 42h74zM312 69q26 -15 62 -15q35 0 61.5 15t26.5 41v375l-176 -317
v-58q0 -26 26 -41zM286 731v-428l164 294z" />
    <glyph glyph-name="oslash" unicode="&#xf8;" 
d="M622 773l-31 -55q19 -5 34 -11q71 -31 71 -107v-469q0 -52 -32 -82q-63 -58 -284 -58q-112 0 -185 13l-32 -57h-75l41 75q-28 11 -45 27q-32 30 -32 82v469q0 76 71 107q77 32 251 32q87 0 150 -8l24 42h74zM312 69q26 -15 62 -15q35 0 61.5 15t26.5 41v375l-176 -317
v-58q0 -26 26 -41zM286 731v-428l164 294z" />
    <glyph glyph-name="ae" unicode="&#xe6;" horiz-adv-x="957" 
d="M901 0h-487v169l-89 78l-47 -247h-228l165 731h666v-101h-403l141 -130q15 -13 17.5 -17t2.5 -22v-36h224v-96h-224v-228h262v-101zM414 280v424l-86 -424h86z" />
    <glyph glyph-name="AE" unicode="&#xc6;" horiz-adv-x="957" 
d="M901 0h-487v169l-89 78l-47 -247h-228l165 731h666v-101h-403l141 -130q15 -13 17.5 -17t2.5 -22v-36h224v-96h-224v-228h262v-101zM414 280v424l-86 -424h86z" />
    <glyph glyph-name="OE" unicode="&#x152;" horiz-adv-x="1013" 
d="M959 0h-428q-63 -9 -151 -9q-86 0 -147.5 7t-102 23.5t-59.5 43.5t-19 66v469q0 40 18.5 66.5t57.5 42.5t100 23t146 7q44 0 81 -2t68 -6h416v-101h-246v-205h228v-96h-228v-228h266v-101zM435 612l-149 119v-621q0 -26 26 -41t62 -15q35 0 61.5 15t26.5 41v442
q0 23 -5 34.5t-22 25.5z" />
    <glyph glyph-name="oe" unicode="&#x153;" horiz-adv-x="1013" 
d="M959 0h-428q-63 -9 -151 -9q-86 0 -147.5 7t-102 23.5t-59.5 43.5t-19 66v469q0 40 18.5 66.5t57.5 42.5t100 23t146 7q44 0 81 -2t68 -6h416v-101h-246v-205h228v-96h-228v-228h266v-101zM435 612l-149 119v-621q0 -26 26 -41t62 -15q35 0 61.5 15t26.5 41v442
q0 23 -5 34.5t-22 25.5z" />
    <glyph glyph-name="questiondown" unicode="&#xbf;" horiz-adv-x="682" 
d="M257 506h205q0 -98 -8 -114q-13 -25 -101 -62q-83 -35 -93 -77q-4 -17 -5 -46.5t-1 -30.5q2 -5 22 -23l154 -138v192h206q0 -63 -2 -77q-4 -45 -23 -71q-23 -31 -78 -44q-61 -15 -188 -15q-195 0 -253 37q-29 18 -41 53q-12 39 -12 112q0 85 19 115t90 58q36 15 88 43
q17 15 20 40q1 5 1 48zM257 740h205v-127h-205v127z" />
    <glyph glyph-name="exclamdown" unicode="&#xa1;" horiz-adv-x="301" 
d="M53 495h196v-496h-196v496zM53 730h196v-128h-196v128z" />
    <glyph glyph-name="space" unicode=" " horiz-adv-x="334" 
 />
  </font>
</defs>
</svg>
